<svg width="96" height="96" xmlns="http://www.w3.org/2000/svg" xmlns:xlink="http://www.w3.org/1999/xlink" xml:space="preserve" overflow="hidden"><g transform="translate(-577 -602)"><path d="M654.29 646.15 642.6 644.76 643.13 630.32C643.18 628.886 642.459 627.536 641.24 626.78L633.82 622.18C633.438 621.941 633.019 621.769 632.58 621.67L613.39 617.43C612.007 617.125 610.565 617.573 609.6 618.61L601 627.8C599.492 629.415 599.58 631.947 601.195 633.455 602.81 634.963 605.342 634.875 606.85 633.26L613.85 625.74 625.5 628.31 612.5 643.15C612.1 643.631 611.764 644.162 611.5 644.73 611.395 644.855 611.302 644.989 611.22 645.13L601.79 661.83 588.25 654C586.336 652.895 583.89 653.551 582.785 655.465 581.68 657.379 582.336 659.825 584.25 660.93L601.31 670.77C601.916 671.126 602.607 671.312 603.31 671.31 603.664 671.308 604.017 671.261 604.36 671.17 605.39 670.889 606.265 670.209 606.79 669.28L615 654.69 628 665.69 625.77 687.33C625.543 689.527 627.14 691.493 629.338 691.72 629.339 691.72 629.339 691.72 629.34 691.72L629.76 691.72C631.818 691.731 633.549 690.178 633.76 688.13L636.18 664.42C636.297 663.118 635.771 661.841 634.77 661L623.77 651.63 634.81 639 634.47 648.18C634.409 650.252 635.941 652.027 638 652.27L653.35 654.09 653.83 654.09C656.039 654.217 657.933 652.529 658.06 650.32 658.187 648.111 656.499 646.217 654.29 646.09Z"/><path d="M668 684C668 688.418 664.418 692 660 692 655.582 692 652 688.418 652 684 652 679.582 655.582 676 660 676 664.418 676 668 679.582 668 684Z"/><path d="M652 616C652 620.418 648.418 624 644 624 639.582 624 636 620.418 636 616 636 611.582 639.582 608 644 608 648.418 608 652 611.582 652 616Z"/></g></svg>