<svg width="96" height="96" xmlns="http://www.w3.org/2000/svg" xmlns:xlink="http://www.w3.org/1999/xlink" xml:space="preserve" overflow="hidden"><g transform="translate(-712 -556)"><path d="M774.2 610.6C778.4 612.1 782.4 613.8 785.7 616.5 787.1 617.6 787.9 619.2 787.9 621L789.7 636.5C789.8 637.2 789.5 637.9 788.9 638.3L788.9 638.3C787.2 639.4 785.4 640.3 783.5 640.9L783.5 644.1 786.2 644.1C787.9 643.4 789.6 642.6 791.1 641.6L791.1 641.6C792.9 640.4 793.9 638.2 793.6 636L792 620.9C791.9 618 790.6 615.3 788.3 613.5 784.6 610.4 780.2 608.5 775.6 606.9L770.7 604.9C770.3 604.7 770.1 604.4 770.1 604L770.1 601.6C773.9 598.6 776.1 594 776.1 589.1L776.1 585.5C776.7 585.9 777.4 586 778.1 586.1L776.4 581.1C776.2 580.4 776 579.7 775.9 579 775.1 573.3 771.7 569.3 767 566.8 766.6 566.6 766.1 566.6 765.7 566.9L764.8 567.6 763.8 566.2C763.5 565.8 763.1 565.4 762.6 565.3 761.7 565.1 760.8 565 759.9 565 752 565 745.4 571.2 744 579.3L744 580 744 580 744 581.7C744 583.9 743.6 586 742.7 588L741 592C741 592 742.2 591.7 744.2 591.1 744.7 595.2 746.8 598.9 750 601.4L750 603.9C750 604.3 749.8 604.7 749.4 604.8L744.5 606.8C739.9 608.4 735.5 610.3 731.8 613.4 729.5 615.2 728.1 617.9 728 620.8L726.3 636C726 638.2 727 640.4 728.8 641.6 730.3 642.6 732 643.4 733.7 644.1L736.5 644.1 736.5 641C734.6 640.3 732.8 639.5 731.1 638.4 730.5 638 730.2 637.3 730.3 636.6L732 621.2 732 621C732 619.2 732.9 617.6 734.3 616.5 737.6 613.8 741.6 612.1 745.8 610.6L747.4 610.1C750.3 611.9 754.9 613 760 613 765.1 613 769.7 611.9 772.7 610.1L774.2 610.6ZM748 589.9C754.8 587.6 764.6 583.6 769 578 769.9 579.4 770.9 580.7 772 582L772 589C772 595.6 766.6 601 760 601 753.7 601 748.5 596.2 748 589.9ZM752 607.9C753.2 607 754 605.5 754 603.9L754 603.8C757.8 605.4 762.2 605.4 766 603.8L766 603.9C766 605.4 766.7 606.9 767.9 607.9 765.3 608.7 762.6 609.1 759.9 609 757.3 609 754.6 608.6 752 607.9Z"/><path d="M781.6 621.3C781.6 619.9 780.5 618.8 779.1 618.8L779.1 618.8 741 618.8C739.6 618.8 738.5 619.9 738.5 621.3L738.5 621.3 738.5 646.2 730.9 646.2 730.9 647.5C730.9 648.9 732 650 733.4 650L786.7 650C788.1 650 789.2 648.9 789.2 647.5L789.2 646.2 781.6 646.2 781.6 621.3ZM754.8 637.8 753.4 639.2 747.8 633.6 753.4 628 754.8 629.4 750.6 633.6 754.8 637.8ZM758.6 639.9 756.8 639.1 761.5 627.8 763.3 628.6 758.6 639.9ZM766.6 639.3 765.2 637.9 769.4 633.7 765.2 629.5 766.6 628.1 772.2 633.7 766.6 639.3Z"/></g></svg>