<svg width="96" height="96" xmlns="http://www.w3.org/2000/svg" xmlns:xlink="http://www.w3.org/1999/xlink" xml:space="preserve" overflow="hidden"><g transform="translate(-592 -312)"><path d="M634.772 332.951 634.772 332.951C629.401 332.982 625.036 337.293 624.937 342.663L624.937 343.032C624.98 344.21 625.216 345.374 625.637 346.475 626.027 347.466 626.59 348.38 627.299 349.175 628.426 350.534 629.391 352.019 630.176 353.601L639.363 353.601C640.148 352.02 641.113 350.534 642.24 349.175 642.949 348.38 643.512 347.466 643.903 346.475 644.323 345.373 644.56 344.21 644.603 343.032L644.603 342.663C644.501 337.296 640.14 332.987 634.772 332.951Z"/><path d="M673.005 361.3 666.105 349.3 666.105 348.8C666.711 332.204 653.748 318.259 637.151 317.653 620.555 317.048 606.611 330.011 606.005 346.607 605.978 347.338 605.978 348.069 606.005 348.8 605.966 358.262 610.326 367.204 617.805 373L617.805 398.3 649.405 398.3 649.405 386.3 654.305 386.3C660.822 386.301 666.106 381.019 666.107 374.502 666.107 374.435 666.106 374.367 666.105 374.3L666.105 368.3 670.505 368.3C673.105 368 675.405 365 673.005 361.3ZM634.772 366.558C633.097 366.56 631.703 365.273 631.572 363.603L637.965 363.603C637.834 365.27 636.444 366.556 634.772 366.558ZM639.178 361.558 630.366 361.558C629.551 361.537 628.908 360.859 628.929 360.044 628.949 359.259 629.581 358.627 630.366 358.607L639.178 358.607C639.993 358.628 640.636 359.306 640.615 360.121 640.595 360.906 639.963 361.538 639.178 361.558ZM647.558 343.084C647.511 344.599 647.21 346.095 646.668 347.51 646.15 348.846 645.397 350.079 644.445 351.15 643.261 352.649 642.256 354.281 641.451 356.013 641.285 356.347 640.943 356.559 640.57 356.559L628.97 356.559C628.597 356.559 628.256 356.347 628.09 356.013 627.283 354.281 626.276 352.649 625.09 351.15 624.138 350.079 623.385 348.846 622.867 347.51 622.326 346.095 622.025 344.599 621.977 343.084L621.977 342.642C622.103 335.654 627.782 330.043 634.771 330L634.771 330C641.756 330.046 647.431 335.655 647.558 342.639Z"/></g></svg>