<svg width="96" height="96" xmlns="http://www.w3.org/2000/svg" xmlns:xlink="http://www.w3.org/1999/xlink" xml:space="preserve" overflow="hidden"><g transform="translate(-592 -312)"><path d="M640 333.8 654.4 348.3 657.2 345.5 640 329 622.4 345.8 625.2 348.6Z"/><path d="M672 369.9 664 369.9 664 361.9 672 361.9 672 369.9ZM672 381.9 664 381.9 664 373.9 672 373.9 672 381.9ZM660 369.9 652 369.9 652 361.9 660 361.9 660 369.9ZM660 381.9 652 381.9 652 373.9 660 373.9 660 381.9ZM647 369.9 633 369.9 633 365.9 647 365.9 647 369.9ZM640 350.9C641.7 350.9 643 352.2 643 353.9 643 355.6 641.7 356.9 640 356.9 638.3 356.9 637 355.6 637 353.9 637 352.2 638.3 350.9 640 350.9ZM628 369.9 620 369.9 620 361.9 628 361.9 628 369.9ZM628 381.9 620 381.9 620 373.9 628 373.9 628 381.9ZM616 369.9 608 369.9 608 361.9 616 361.9 616 369.9ZM616 381.9 608 381.9 608 373.9 616 373.9 616 381.9ZM652 356.9 652 350.9 640 338.9 628 350.9 628 356.9 604 356.9 604 390.9 633 390.9 633 379.9C633 377.1 635 373.9 640 373.9 645 373.9 647 377.1 647 379.9L647 390.9 676 390.9 676 356.9 652 356.9Z"/></g></svg>